<svg xmlns="http://www.w3.org/2000/svg">
  <defs>
    <symbol id="icon-video" viewBox="0 0 1200 1200">
    <svg version="1.1" x="0px" y="0px" viewBox="0 0 512 640" enable-background="new 0 0 512 512" xml:space="preserve">
    <g><path d="M511.737,189.898H170.41l340.546-78.653l-17.374-75.372c-4.875-21.125-25.718-34.343-46.56-29.53L30.043,102.652   c-17.719,4.093-29.749,19.905-29.968,37.561H0.013l0.094,327.152c0,21.687,17.563,39.28,39.217,39.28h433.447   c21.654,0,39.217-17.596,39.217-39.28L511.737,189.898z M402.368,47.186l67.436,44.03l-51.997,12L350.37,59.216L402.368,47.186z    M297.466,71.435l67.436,44.03l-51.998,12L245.47,83.465L297.466,71.435z M195.097,95.089l67.435,44.03l-51.998,12l-67.434-44.03   L195.097,95.089z M90.477,119.246l67.403,44.029l-51.998,12l-67.402-43.998L90.477,119.246z M472.739,467.365H39.229V229.084   h433.51V467.365z"/><polygon points="215.096,286.091 215.096,413.617 317.122,349.838  "/></g>
    </svg> 
    </symbol>

    <symbol id="icon-instructor" viewBox="0 0 1200 1200">
        <svg version="1.1" x="0px" y="0px" viewBox="0 0 512 640" enable-background="new 0 0 512 512" xml:space="preserve">
        <path d="M304,352c0-4.418,3.582-8,8-8s8,3.582,8,8s-3.582,8-8,8S304,356.418,304,352z M312,392c4.418,0,8-3.582,8-8s-3.582-8-8-8  s-8,3.582-8,8S307.582,392,312,392z M105.738,220.617c-0.553,2.389,0.004,4.861,1.531,6.783l45.354,57.113L224,250.923v-21.315  c-14.718-13.192-24-32.333-24-53.608v-51.194l-6.247-7.809c-1-1.25-1.573-2.741-1.713-4.273l-0.008,0.001  c-0.159-1.745-3.587-43.059,22.306-71.412C229.677,24.517,251.769,16,280,16s50.323,8.517,65.662,25.312  c25.893,28.354,22.464,69.667,22.306,71.412l-0.008-0.001c-0.139,1.532-0.712,3.023-1.713,4.273L360,124.806V176  c0,21.274-9.282,40.416-24,53.608v21.315l94.657,44.545C455.772,307.287,472,332.858,472,360.615V488c0,4.418-3.582,8-8,8H96  c-4.418,0-8-3.582-8-8V360.615c0-20.142,8.266-39.023,22.847-52.611L46.425,226.88c-4.579-5.766-6.248-13.194-4.577-20.383  c2.523-10.856,8.145-31.791,17.447-50.02C71.646,132.272,86.687,120,104,120c27.747,0,44.434,16.419,50.798,31.784  c5.914,14.276,3.943,28.788-5.141,37.873c-8.51,8.509-21.822,17.105-39.569,25.55C107.877,216.26,106.291,218.231,105.738,220.617z   M206.411,480h41.02l-16.156-20.344L206.411,480z M267.863,480h19.569l-31.909-40.182l-11.862,9.705L267.863,480z M256.78,408.455  l-21.99-30.785c-2.564-3.591-7.57-4.423-11.16-1.86l-40.583,28.988l-7.286,29.143c-0.434,1.735-1.438,3.276-2.85,4.374L119.316,480  h61.829l74.192-60.702C258.588,416.637,259.222,411.875,256.78,408.455z M134.398,448H104v23.643L134.398,448z M201.583,371.895  l-87.683-110.416l-11.644,9.98l86.84,109.354L201.583,371.895z M104,360.615V432h50.97l5.939-4.619l7.33-29.321  c0.461-1.845,1.564-3.465,3.111-4.569l4.71-3.365l-55.217-69.533C110.086,331.088,104,345.384,104,360.615z M456,448h-64v32h64V448z   M307.683,300.897l33.578,16.789l23.65-35.475l-34.079-16.037L307.683,300.897z M233.365,140.9c8.286-5.414,23.862-12.9,46.635-12.9  s38.349,7.486,46.635,12.9l23.603-29.503C342,100.506,325.579,94.796,312.534,91.87C295.57,88.064,280.148,88,279.995,88  c-0.143,0-15.565,0.064-32.529,3.87c-13.045,2.926-29.466,8.636-37.703,19.527L233.365,140.9z M209.12,90.416  C235.456,72.264,277.764,72,280,72s44.545,0.264,70.88,18.416c-1.902-11.931-6.461-26.781-17.106-38.393  C321.594,38.736,303.502,32,280,32s-41.594,6.736-53.774,20.022C215.581,63.634,211.022,78.483,209.12,90.416z M272,232h16  c30.878,0,56-25.121,56-56v-31.194l-9.753,12.191c-1.422,1.777-3.533,2.865-5.805,2.99c-2.274,0.135-4.49-0.722-6.099-2.33  c-0.001,0-3.598-3.443-10.584-6.828C302.408,146.298,291.723,144,280,144s-22.408,2.298-31.759,6.829  c-6.995,3.39-10.592,6.837-10.627,6.871c-1.502,1.502-3.516,2.321-5.625,2.321c-0.15,0-0.301-0.004-0.452-0.012  c-2.272-0.126-4.361-1.235-5.783-3.013L216,144.806V176C216,206.879,241.122,232,272,232z M240,240.472v13.106l40,60l40-60v-13.106  c-9.647,4.808-20.509,7.528-32,7.528h-16C260.509,248,249.647,245.28,240,240.472z M195.089,282.211l23.65,35.475l33.578-16.789  l-23.149-34.724L195.089,282.211z M162.845,297.385l51.781,65.206c10.747-7.439,25.562-4.892,33.184,5.778l21.99,30.786  c6.704,9.387,5.658,22.133-2.038,30.348L307.862,480H376V368c0-4.418,3.582-8,8-8s8,3.582,8,8v64h64v-71.385  c0-21.589-12.622-41.478-32.156-50.671l-44.296-20.845l-28.892,43.338c-1.528,2.293-4.06,3.563-6.661,3.563  c-1.207,0-2.429-0.273-3.573-0.846l-41.683-20.842L288,330.422V384c0,4.418-3.582,8-8,8s-8-3.582-8-8v-53.578l-10.739-16.108  l-41.683,20.842c-1.144,0.572-2.366,0.846-3.573,0.846c-2.601,0-5.133-1.271-6.661-3.563l-28.892-43.338L162.845,297.385z   M90.151,217.005c1.66-7.163,6.42-13.085,13.061-16.245c15.869-7.551,28.017-15.303,35.131-22.417  c4.354-4.354,5.011-12.376,1.673-20.436C135.629,147.316,123.864,136,104,136c-7.433,0-18.75,4.814-30.454,27.75  c-8.527,16.711-13.756,36.225-16.113,46.369c-0.56,2.406-0.005,4.889,1.521,6.811L92.3,258.921l11.644-9.98l-9.204-11.591  C90.163,231.587,88.491,224.172,90.151,217.005z"/>
        </svg>
    </symbol>

    <symbol id="icon-membership" viewBox="0 0 1200 1200">
    <svg version="1.1" x="0px" y="0px" viewBox="0 0 200 175.125" style="enable-background:new 0 0 200 140.1;" xml:space="preserve">
    <g><path d="M175.9,0H24.1C10.8,0,0,10.8,0,24.1v57.6v27.6v6.8c0,13.3,10.8,24.1,24.1,24.1h151.8c13.3,0,24.1-10.8,24.1-24.1v-6.8V81.7   V24.1C200,10.8,189.2,0,175.9,0z M189.6,116c0,7.5-6.1,13.7-13.7,13.7H24.1c-7.5,0-13.7-6.1-13.7-13.7v-6.8h179.1V116z M10.4,81.7   V24.1c0-7.5,6.1-13.7,13.7-13.7h151.8c7.5,0,13.7,6.1,13.7,13.7v57.6H10.4z"/>
    <path d="M52.9,43.1c-1-0.4-1.9-0.7-2.8-1.1V31.4c0.3,0.1,0.6,0.2,0.9,0.3c1.2,0.5,2,1.2,2.5,2.1c0,0,2.4,2.7,5.4,0.5   c2.4-1.8,1-5,1-5c-1.1-1.8-2.8-3.2-5.1-4.4c-1.5-0.8-3.1-1.3-4.7-1.7V20h-6.1v3.1c-1.5,0.2-3,0.7-4.4,1.4c-2.5,1.3-4.4,3-5.4,5.3   c-0.8,1.8-1.2,3.7-1.1,5.7c0.1,2,0.6,3.8,1.6,5.5c1,1.7,2.4,3.2,4,4.4c1,0.7,2.6,1.4,4.7,2.4c0.2,0.1,0.4,0.1,0.5,0.2v12   c-0.6-0.2-1.1-0.4-1.6-0.7c-1.7-1-3-2.3-3.6-4c0,0-1.6-3.1-5-1.5c-1.4,0.6-1.9,1.7-2.1,2.7c-0.2,1,0.1,2.1,0.6,3   c0.8,1.6,1.9,3,3.3,4.2c1.7,1.6,3.7,2.7,6,3.5c0.8,0.3,1.7,0.5,2.6,0.7v3h6.1v-2.7c3.9-0.5,6.9-2.2,9.1-5.3   c2.5-3.5,3.2-7.3,2.2-11.4C60.3,47.4,57.5,44.6,52.9,43.1z M43.9,39.4c-0.4-0.2-0.7-0.4-0.9-0.5c-1-0.6-1.7-1.5-2-2.6   c-0.3-1.1-0.3-2.1,0.2-3.1c0.3-0.8,1.1-1.5,2.2-1.9c0.2-0.1,0.4-0.1,0.5-0.2V39.4z M52.8,58.4c-0.7,0.9-1.6,1.4-2.7,1.8v-9.9   c0.1,0,0.2,0.1,0.3,0.1c2,0.7,3.2,1.8,3.6,3.5C54.3,55.6,53.9,57.1,52.8,58.4z"/></g>
    </svg>
    </symbol>
  </defs>
</svg>